<mxfile host="Electron" modified="2024-04-27T14:10:35.253Z" agent="Mozilla/5.0 (Windows NT 10.0; Win64; x64) AppleWebKit/537.36 (KHTML, like Gecko) draw.io/24.2.5 Chrome/120.0.6099.109 Electron/28.1.0 Safari/537.36" etag="IoqgBQneOMZDiiSQzlqc" version="24.2.5" type="device">
  <diagram name="第 1 页" id="GZXWxgBitUTnHQULsZGy">
    <mxGraphModel dx="3050" dy="3377" grid="1" gridSize="10" guides="1" tooltips="1" connect="1" arrows="1" fold="1" page="1" pageScale="1" pageWidth="827" pageHeight="1169" math="0" shadow="0">
      <root>
        <mxCell id="0" />
        <mxCell id="1" parent="0" />
        <mxCell id="7M1ooFL7KDycwPwj_hr8-1" value="算法与数据结构&amp;nbsp; &amp;gt;&amp;gt;&amp;gt;&amp;gt;&amp;nbsp; 思维与逻辑结构" style="text;html=1;align=center;verticalAlign=middle;whiteSpace=wrap;rounded=0;fontStyle=1;fontSize=25;fillColor=#d80073;fontColor=#ffffff;strokeColor=#A50040;" vertex="1" parent="1">
          <mxGeometry x="165" y="20" width="497" height="50" as="geometry" />
        </mxCell>
        <mxCell id="7M1ooFL7KDycwPwj_hr8-2" value="2.1 队列与栈 （链表实现队列）" style="text;html=1;align=center;verticalAlign=middle;whiteSpace=wrap;rounded=0;fontStyle=1;fontSize=22;fillColor=#d80073;fontColor=#ffffff;strokeColor=#A50040;" vertex="1" parent="1">
          <mxGeometry x="230" y="94" width="390" height="40" as="geometry" />
        </mxCell>
        <mxCell id="7M1ooFL7KDycwPwj_hr8-12" style="edgeStyle=orthogonalEdgeStyle;rounded=0;orthogonalLoop=1;jettySize=auto;html=1;exitX=1;exitY=0.5;exitDx=0;exitDy=0;entryX=0;entryY=0.5;entryDx=0;entryDy=0;" edge="1" parent="1" source="7M1ooFL7KDycwPwj_hr8-3" target="7M1ooFL7KDycwPwj_hr8-4">
          <mxGeometry relative="1" as="geometry" />
        </mxCell>
        <mxCell id="7M1ooFL7KDycwPwj_hr8-3" value="1" style="ellipse;whiteSpace=wrap;html=1;aspect=fixed;fillColor=#ffe6cc;strokeColor=#d79b00;" vertex="1" parent="1">
          <mxGeometry x="250" y="200" width="40" height="40" as="geometry" />
        </mxCell>
        <mxCell id="7M1ooFL7KDycwPwj_hr8-13" style="edgeStyle=orthogonalEdgeStyle;rounded=0;orthogonalLoop=1;jettySize=auto;html=1;exitX=1;exitY=0.5;exitDx=0;exitDy=0;entryX=0;entryY=0.5;entryDx=0;entryDy=0;" edge="1" parent="1" source="7M1ooFL7KDycwPwj_hr8-4" target="7M1ooFL7KDycwPwj_hr8-5">
          <mxGeometry relative="1" as="geometry" />
        </mxCell>
        <mxCell id="7M1ooFL7KDycwPwj_hr8-4" value="2" style="ellipse;whiteSpace=wrap;html=1;aspect=fixed;fillColor=#d5e8d4;strokeColor=#82b366;" vertex="1" parent="1">
          <mxGeometry x="330" y="200" width="40" height="40" as="geometry" />
        </mxCell>
        <mxCell id="7M1ooFL7KDycwPwj_hr8-14" style="edgeStyle=orthogonalEdgeStyle;rounded=0;orthogonalLoop=1;jettySize=auto;html=1;exitX=1;exitY=0.5;exitDx=0;exitDy=0;entryX=0;entryY=0.5;entryDx=0;entryDy=0;" edge="1" parent="1" source="7M1ooFL7KDycwPwj_hr8-5" target="7M1ooFL7KDycwPwj_hr8-6">
          <mxGeometry relative="1" as="geometry" />
        </mxCell>
        <mxCell id="7M1ooFL7KDycwPwj_hr8-5" value="3" style="ellipse;whiteSpace=wrap;html=1;aspect=fixed;fillColor=#dae8fc;strokeColor=#6c8ebf;" vertex="1" parent="1">
          <mxGeometry x="414" y="200" width="40" height="40" as="geometry" />
        </mxCell>
        <mxCell id="7M1ooFL7KDycwPwj_hr8-15" style="edgeStyle=orthogonalEdgeStyle;rounded=0;orthogonalLoop=1;jettySize=auto;html=1;exitX=1;exitY=0.5;exitDx=0;exitDy=0;entryX=0;entryY=0.5;entryDx=0;entryDy=0;" edge="1" parent="1" source="7M1ooFL7KDycwPwj_hr8-6" target="7M1ooFL7KDycwPwj_hr8-7">
          <mxGeometry relative="1" as="geometry" />
        </mxCell>
        <mxCell id="7M1ooFL7KDycwPwj_hr8-6" value="4" style="ellipse;whiteSpace=wrap;html=1;aspect=fixed;fillColor=#fff2cc;strokeColor=#d6b656;" vertex="1" parent="1">
          <mxGeometry x="500" y="200" width="40" height="40" as="geometry" />
        </mxCell>
        <mxCell id="7M1ooFL7KDycwPwj_hr8-16" style="edgeStyle=orthogonalEdgeStyle;rounded=0;orthogonalLoop=1;jettySize=auto;html=1;exitX=1;exitY=0.5;exitDx=0;exitDy=0;entryX=0;entryY=0.5;entryDx=0;entryDy=0;" edge="1" parent="1" source="7M1ooFL7KDycwPwj_hr8-7" target="7M1ooFL7KDycwPwj_hr8-8">
          <mxGeometry relative="1" as="geometry" />
        </mxCell>
        <mxCell id="7M1ooFL7KDycwPwj_hr8-7" value="5" style="ellipse;whiteSpace=wrap;html=1;aspect=fixed;fillColor=#f8cecc;strokeColor=#b85450;" vertex="1" parent="1">
          <mxGeometry x="580" y="200" width="40" height="40" as="geometry" />
        </mxCell>
        <mxCell id="7M1ooFL7KDycwPwj_hr8-8" value="6" style="ellipse;whiteSpace=wrap;html=1;aspect=fixed;fillColor=#e1d5e7;strokeColor=#9673a6;" vertex="1" parent="1">
          <mxGeometry x="662" y="200" width="40" height="40" as="geometry" />
        </mxCell>
        <mxCell id="7M1ooFL7KDycwPwj_hr8-11" style="edgeStyle=orthogonalEdgeStyle;rounded=0;orthogonalLoop=1;jettySize=auto;html=1;exitX=1;exitY=0.5;exitDx=0;exitDy=0;entryX=0;entryY=0.5;entryDx=0;entryDy=0;" edge="1" parent="1" source="7M1ooFL7KDycwPwj_hr8-10" target="7M1ooFL7KDycwPwj_hr8-3">
          <mxGeometry relative="1" as="geometry" />
        </mxCell>
        <mxCell id="7M1ooFL7KDycwPwj_hr8-10" value="&lt;font color=&quot;#66b2ff&quot;&gt;head&lt;/font&gt;&lt;div&gt;&lt;font color=&quot;#66b2ff&quot;&gt;(虚拟头指针)&lt;/font&gt;&lt;/div&gt;" style="rounded=1;whiteSpace=wrap;html=1;strokeColor=#3399FF;dashed=1;" vertex="1" parent="1">
          <mxGeometry x="120" y="200" width="85" height="40" as="geometry" />
        </mxCell>
        <mxCell id="7M1ooFL7KDycwPwj_hr8-17" value="" style="endArrow=classic;html=1;rounded=0;" edge="1" parent="1">
          <mxGeometry width="50" height="50" relative="1" as="geometry">
            <mxPoint x="681.76" y="160" as="sourcePoint" />
            <mxPoint x="681.76" y="190" as="targetPoint" />
          </mxGeometry>
        </mxCell>
        <mxCell id="7M1ooFL7KDycwPwj_hr8-19" value="tail" style="text;html=1;align=center;verticalAlign=middle;whiteSpace=wrap;rounded=0;" vertex="1" parent="1">
          <mxGeometry x="652" y="134" width="60" height="30" as="geometry" />
        </mxCell>
        <mxCell id="7M1ooFL7KDycwPwj_hr8-21" value="链表实现队列" style="rounded=1;whiteSpace=wrap;html=1;fillColor=#d80073;fontColor=#ffffff;strokeColor=#A50040;fontStyle=1" vertex="1" parent="1">
          <mxGeometry x="338.5" y="276" width="152" height="30" as="geometry" />
        </mxCell>
        <mxCell id="7M1ooFL7KDycwPwj_hr8-22" style="edgeStyle=orthogonalEdgeStyle;rounded=0;orthogonalLoop=1;jettySize=auto;html=1;exitX=1;exitY=0.5;exitDx=0;exitDy=0;entryX=0;entryY=0.5;entryDx=0;entryDy=0;fillColor=#f8cecc;strokeColor=#b85450;" edge="1" source="7M1ooFL7KDycwPwj_hr8-23" target="7M1ooFL7KDycwPwj_hr8-25" parent="1">
          <mxGeometry relative="1" as="geometry" />
        </mxCell>
        <mxCell id="7M1ooFL7KDycwPwj_hr8-23" value="1" style="ellipse;whiteSpace=wrap;html=1;aspect=fixed;fillColor=#ffe6cc;strokeColor=#d79b00;" vertex="1" parent="1">
          <mxGeometry x="250" y="376" width="40" height="40" as="geometry" />
        </mxCell>
        <mxCell id="7M1ooFL7KDycwPwj_hr8-24" style="edgeStyle=orthogonalEdgeStyle;rounded=0;orthogonalLoop=1;jettySize=auto;html=1;exitX=1;exitY=0.5;exitDx=0;exitDy=0;entryX=0;entryY=0.5;entryDx=0;entryDy=0;" edge="1" source="7M1ooFL7KDycwPwj_hr8-25" target="7M1ooFL7KDycwPwj_hr8-27" parent="1">
          <mxGeometry relative="1" as="geometry" />
        </mxCell>
        <mxCell id="7M1ooFL7KDycwPwj_hr8-25" value="2" style="ellipse;whiteSpace=wrap;html=1;aspect=fixed;fillColor=#d5e8d4;strokeColor=#82b366;" vertex="1" parent="1">
          <mxGeometry x="330" y="376" width="40" height="40" as="geometry" />
        </mxCell>
        <mxCell id="7M1ooFL7KDycwPwj_hr8-26" style="edgeStyle=orthogonalEdgeStyle;rounded=0;orthogonalLoop=1;jettySize=auto;html=1;exitX=1;exitY=0.5;exitDx=0;exitDy=0;entryX=0;entryY=0.5;entryDx=0;entryDy=0;" edge="1" source="7M1ooFL7KDycwPwj_hr8-27" target="7M1ooFL7KDycwPwj_hr8-29" parent="1">
          <mxGeometry relative="1" as="geometry" />
        </mxCell>
        <mxCell id="7M1ooFL7KDycwPwj_hr8-27" value="3" style="ellipse;whiteSpace=wrap;html=1;aspect=fixed;fillColor=#dae8fc;strokeColor=#6c8ebf;" vertex="1" parent="1">
          <mxGeometry x="414" y="376" width="40" height="40" as="geometry" />
        </mxCell>
        <mxCell id="7M1ooFL7KDycwPwj_hr8-28" style="edgeStyle=orthogonalEdgeStyle;rounded=0;orthogonalLoop=1;jettySize=auto;html=1;exitX=1;exitY=0.5;exitDx=0;exitDy=0;entryX=0;entryY=0.5;entryDx=0;entryDy=0;" edge="1" source="7M1ooFL7KDycwPwj_hr8-29" target="7M1ooFL7KDycwPwj_hr8-31" parent="1">
          <mxGeometry relative="1" as="geometry" />
        </mxCell>
        <mxCell id="7M1ooFL7KDycwPwj_hr8-29" value="4" style="ellipse;whiteSpace=wrap;html=1;aspect=fixed;fillColor=#fff2cc;strokeColor=#d6b656;" vertex="1" parent="1">
          <mxGeometry x="500" y="376" width="40" height="40" as="geometry" />
        </mxCell>
        <mxCell id="7M1ooFL7KDycwPwj_hr8-30" style="edgeStyle=orthogonalEdgeStyle;rounded=0;orthogonalLoop=1;jettySize=auto;html=1;exitX=1;exitY=0.5;exitDx=0;exitDy=0;entryX=0;entryY=0.5;entryDx=0;entryDy=0;" edge="1" source="7M1ooFL7KDycwPwj_hr8-31" target="7M1ooFL7KDycwPwj_hr8-32" parent="1">
          <mxGeometry relative="1" as="geometry" />
        </mxCell>
        <mxCell id="7M1ooFL7KDycwPwj_hr8-31" value="5" style="ellipse;whiteSpace=wrap;html=1;aspect=fixed;fillColor=#f8cecc;strokeColor=#b85450;" vertex="1" parent="1">
          <mxGeometry x="580" y="376" width="40" height="40" as="geometry" />
        </mxCell>
        <mxCell id="7M1ooFL7KDycwPwj_hr8-32" value="6" style="ellipse;whiteSpace=wrap;html=1;aspect=fixed;fillColor=#e1d5e7;strokeColor=#9673a6;" vertex="1" parent="1">
          <mxGeometry x="662" y="376" width="40" height="40" as="geometry" />
        </mxCell>
        <mxCell id="7M1ooFL7KDycwPwj_hr8-42" style="edgeStyle=orthogonalEdgeStyle;rounded=0;orthogonalLoop=1;jettySize=auto;html=1;exitX=0.5;exitY=0;exitDx=0;exitDy=0;entryX=0.5;entryY=0;entryDx=0;entryDy=0;" edge="1" parent="1" source="7M1ooFL7KDycwPwj_hr8-34" target="7M1ooFL7KDycwPwj_hr8-25">
          <mxGeometry relative="1" as="geometry" />
        </mxCell>
        <mxCell id="7M1ooFL7KDycwPwj_hr8-43" style="edgeStyle=orthogonalEdgeStyle;rounded=0;orthogonalLoop=1;jettySize=auto;html=1;exitX=1;exitY=0.5;exitDx=0;exitDy=0;entryX=0;entryY=0.5;entryDx=0;entryDy=0;fillColor=#f8cecc;strokeColor=#b85450;" edge="1" parent="1" source="7M1ooFL7KDycwPwj_hr8-34" target="7M1ooFL7KDycwPwj_hr8-23">
          <mxGeometry relative="1" as="geometry" />
        </mxCell>
        <mxCell id="7M1ooFL7KDycwPwj_hr8-34" value="&lt;font color=&quot;#66b2ff&quot;&gt;head&lt;/font&gt;&lt;div&gt;&lt;font color=&quot;#66b2ff&quot;&gt;(虚拟头指针)&lt;/font&gt;&lt;/div&gt;" style="rounded=1;whiteSpace=wrap;html=1;strokeColor=#3399FF;dashed=1;" vertex="1" parent="1">
          <mxGeometry x="120" y="376" width="85" height="40" as="geometry" />
        </mxCell>
        <mxCell id="7M1ooFL7KDycwPwj_hr8-35" value="" style="endArrow=classic;html=1;rounded=0;" edge="1" parent="1">
          <mxGeometry width="50" height="50" relative="1" as="geometry">
            <mxPoint x="681.76" y="336" as="sourcePoint" />
            <mxPoint x="681.76" y="366" as="targetPoint" />
          </mxGeometry>
        </mxCell>
        <mxCell id="7M1ooFL7KDycwPwj_hr8-36" value="tail" style="text;html=1;align=center;verticalAlign=middle;whiteSpace=wrap;rounded=0;" vertex="1" parent="1">
          <mxGeometry x="652" y="310" width="60" height="30" as="geometry" />
        </mxCell>
        <mxCell id="7M1ooFL7KDycwPwj_hr8-37" value="pop()" style="rounded=1;whiteSpace=wrap;html=1;fillColor=#d80073;fontColor=#ffffff;strokeColor=#A50040;fontStyle=1" vertex="1" parent="1">
          <mxGeometry x="338" y="500" width="152" height="30" as="geometry" />
        </mxCell>
        <mxCell id="7M1ooFL7KDycwPwj_hr8-44" value="" style="rounded=1;whiteSpace=wrap;html=1;fillColor=none;dashed=1;strokeColor=#FF0000;" vertex="1" parent="1">
          <mxGeometry x="225" y="371" width="90" height="50" as="geometry" />
        </mxCell>
        <mxCell id="7M1ooFL7KDycwPwj_hr8-45" value="销毁" style="rounded=1;whiteSpace=wrap;html=1;fillColor=#d80073;fontColor=#ffffff;strokeColor=#A50040;fontStyle=1" vertex="1" parent="1">
          <mxGeometry x="235" y="430" width="70" height="30" as="geometry" />
        </mxCell>
        <mxCell id="7M1ooFL7KDycwPwj_hr8-46" style="edgeStyle=orthogonalEdgeStyle;rounded=0;orthogonalLoop=1;jettySize=auto;html=1;exitX=1;exitY=0.5;exitDx=0;exitDy=0;entryX=0;entryY=0.5;entryDx=0;entryDy=0;fillColor=#f8cecc;strokeColor=#000000;" edge="1" source="7M1ooFL7KDycwPwj_hr8-47" target="7M1ooFL7KDycwPwj_hr8-49" parent="1">
          <mxGeometry relative="1" as="geometry" />
        </mxCell>
        <mxCell id="7M1ooFL7KDycwPwj_hr8-47" value="1" style="ellipse;whiteSpace=wrap;html=1;aspect=fixed;fillColor=#ffe6cc;strokeColor=#d79b00;" vertex="1" parent="1">
          <mxGeometry x="215" y="630" width="40" height="40" as="geometry" />
        </mxCell>
        <mxCell id="7M1ooFL7KDycwPwj_hr8-48" style="edgeStyle=orthogonalEdgeStyle;rounded=0;orthogonalLoop=1;jettySize=auto;html=1;exitX=1;exitY=0.5;exitDx=0;exitDy=0;entryX=0;entryY=0.5;entryDx=0;entryDy=0;" edge="1" source="7M1ooFL7KDycwPwj_hr8-49" target="7M1ooFL7KDycwPwj_hr8-51" parent="1">
          <mxGeometry relative="1" as="geometry" />
        </mxCell>
        <mxCell id="7M1ooFL7KDycwPwj_hr8-49" value="2" style="ellipse;whiteSpace=wrap;html=1;aspect=fixed;fillColor=#d5e8d4;strokeColor=#82b366;" vertex="1" parent="1">
          <mxGeometry x="295" y="630" width="40" height="40" as="geometry" />
        </mxCell>
        <mxCell id="7M1ooFL7KDycwPwj_hr8-50" style="edgeStyle=orthogonalEdgeStyle;rounded=0;orthogonalLoop=1;jettySize=auto;html=1;exitX=1;exitY=0.5;exitDx=0;exitDy=0;entryX=0;entryY=0.5;entryDx=0;entryDy=0;" edge="1" source="7M1ooFL7KDycwPwj_hr8-51" target="7M1ooFL7KDycwPwj_hr8-53" parent="1">
          <mxGeometry relative="1" as="geometry" />
        </mxCell>
        <mxCell id="7M1ooFL7KDycwPwj_hr8-51" value="3" style="ellipse;whiteSpace=wrap;html=1;aspect=fixed;fillColor=#dae8fc;strokeColor=#6c8ebf;" vertex="1" parent="1">
          <mxGeometry x="379" y="630" width="40" height="40" as="geometry" />
        </mxCell>
        <mxCell id="7M1ooFL7KDycwPwj_hr8-52" style="edgeStyle=orthogonalEdgeStyle;rounded=0;orthogonalLoop=1;jettySize=auto;html=1;exitX=1;exitY=0.5;exitDx=0;exitDy=0;entryX=0;entryY=0.5;entryDx=0;entryDy=0;" edge="1" source="7M1ooFL7KDycwPwj_hr8-53" target="7M1ooFL7KDycwPwj_hr8-55" parent="1">
          <mxGeometry relative="1" as="geometry" />
        </mxCell>
        <mxCell id="7M1ooFL7KDycwPwj_hr8-53" value="4" style="ellipse;whiteSpace=wrap;html=1;aspect=fixed;fillColor=#fff2cc;strokeColor=#d6b656;" vertex="1" parent="1">
          <mxGeometry x="465" y="630" width="40" height="40" as="geometry" />
        </mxCell>
        <mxCell id="7M1ooFL7KDycwPwj_hr8-54" style="edgeStyle=orthogonalEdgeStyle;rounded=0;orthogonalLoop=1;jettySize=auto;html=1;exitX=1;exitY=0.5;exitDx=0;exitDy=0;entryX=0;entryY=0.5;entryDx=0;entryDy=0;" edge="1" source="7M1ooFL7KDycwPwj_hr8-55" target="7M1ooFL7KDycwPwj_hr8-56" parent="1">
          <mxGeometry relative="1" as="geometry" />
        </mxCell>
        <mxCell id="7M1ooFL7KDycwPwj_hr8-55" value="5" style="ellipse;whiteSpace=wrap;html=1;aspect=fixed;fillColor=#f8cecc;strokeColor=#b85450;" vertex="1" parent="1">
          <mxGeometry x="545" y="630" width="40" height="40" as="geometry" />
        </mxCell>
        <mxCell id="7M1ooFL7KDycwPwj_hr8-67" style="edgeStyle=orthogonalEdgeStyle;rounded=0;orthogonalLoop=1;jettySize=auto;html=1;exitX=1;exitY=0.5;exitDx=0;exitDy=0;entryX=0;entryY=0.5;entryDx=0;entryDy=0;" edge="1" parent="1" source="7M1ooFL7KDycwPwj_hr8-56" target="7M1ooFL7KDycwPwj_hr8-66">
          <mxGeometry relative="1" as="geometry" />
        </mxCell>
        <mxCell id="7M1ooFL7KDycwPwj_hr8-56" value="6" style="ellipse;whiteSpace=wrap;html=1;aspect=fixed;fillColor=#e1d5e7;strokeColor=#9673a6;" vertex="1" parent="1">
          <mxGeometry x="627" y="630" width="40" height="40" as="geometry" />
        </mxCell>
        <mxCell id="7M1ooFL7KDycwPwj_hr8-58" style="edgeStyle=orthogonalEdgeStyle;rounded=0;orthogonalLoop=1;jettySize=auto;html=1;exitX=1;exitY=0.5;exitDx=0;exitDy=0;entryX=0;entryY=0.5;entryDx=0;entryDy=0;fillColor=#f8cecc;strokeColor=#000000;" edge="1" source="7M1ooFL7KDycwPwj_hr8-59" target="7M1ooFL7KDycwPwj_hr8-47" parent="1">
          <mxGeometry relative="1" as="geometry" />
        </mxCell>
        <mxCell id="7M1ooFL7KDycwPwj_hr8-59" value="&lt;font color=&quot;#66b2ff&quot;&gt;head&lt;/font&gt;&lt;div&gt;&lt;font color=&quot;#66b2ff&quot;&gt;(虚拟头指针)&lt;/font&gt;&lt;/div&gt;" style="rounded=1;whiteSpace=wrap;html=1;strokeColor=#3399FF;dashed=1;" vertex="1" parent="1">
          <mxGeometry x="85" y="630" width="85" height="40" as="geometry" />
        </mxCell>
        <mxCell id="7M1ooFL7KDycwPwj_hr8-60" value="" style="endArrow=classic;html=1;rounded=0;" edge="1" parent="1">
          <mxGeometry width="50" height="50" relative="1" as="geometry">
            <mxPoint x="734.76" y="586" as="sourcePoint" />
            <mxPoint x="734.76" y="616" as="targetPoint" />
          </mxGeometry>
        </mxCell>
        <mxCell id="7M1ooFL7KDycwPwj_hr8-61" value="tail" style="text;html=1;align=center;verticalAlign=middle;whiteSpace=wrap;rounded=0;" vertex="1" parent="1">
          <mxGeometry x="705" y="560" width="60" height="30" as="geometry" />
        </mxCell>
        <mxCell id="7M1ooFL7KDycwPwj_hr8-62" value="push()" style="rounded=1;whiteSpace=wrap;html=1;fillColor=#d80073;fontColor=#ffffff;strokeColor=#A50040;fontStyle=1" vertex="1" parent="1">
          <mxGeometry x="338.5" y="730" width="152" height="30" as="geometry" />
        </mxCell>
        <mxCell id="7M1ooFL7KDycwPwj_hr8-66" value="7" style="ellipse;whiteSpace=wrap;html=1;aspect=fixed;fillColor=#f0a30a;strokeColor=#BD7000;fontColor=#000000;" vertex="1" parent="1">
          <mxGeometry x="715" y="630" width="40" height="40" as="geometry" />
        </mxCell>
        <mxCell id="7M1ooFL7KDycwPwj_hr8-68" value="数据结构层面&lt;div&gt;&lt;span style=&quot;font-size: 16px;&quot;&gt;队列和栈属于基于链表和顺序表的一种上层数据结构&lt;/span&gt;&lt;/div&gt;" style="text;html=1;align=center;verticalAlign=middle;whiteSpace=wrap;rounded=0;fontStyle=1;fontSize=22;fillColor=#a20025;fontColor=#ffffff;strokeColor=#6F0000;" vertex="1" parent="1">
          <mxGeometry x="219.25" y="820" width="407.5" height="73" as="geometry" />
        </mxCell>
        <mxCell id="7M1ooFL7KDycwPwj_hr8-69" value="&lt;font style=&quot;font-size: 16px;&quot;&gt;使用顺序表和链表的特性，加上自己的特性而形成的数据结构&lt;/font&gt;&lt;div style=&quot;&quot;&gt;&lt;span style=&quot;background-color: initial;&quot;&gt;&lt;font style=&quot;font-size: 16px;&quot;&gt;( 队列的特点：FIFO，即先入先出 ）&lt;/font&gt;&lt;/span&gt;&lt;/div&gt;" style="text;html=1;align=center;verticalAlign=middle;whiteSpace=wrap;rounded=0;fontStyle=1;fontSize=22;fillColor=#a20025;fontColor=#ffffff;strokeColor=#6F0000;" vertex="1" parent="1">
          <mxGeometry x="167" y="910" width="485" height="60" as="geometry" />
        </mxCell>
        <mxCell id="7M1ooFL7KDycwPwj_hr8-70" value="typedef struct Queue {&lt;div style=&quot;font-size: 16px;&quot;&gt;&lt;span style=&quot;white-space: pre; font-size: 16px;&quot;&gt;&#x9;&lt;/span&gt;Linklist *l;&lt;br style=&quot;font-size: 16px;&quot;&gt;&lt;/div&gt;&lt;div style=&quot;font-size: 16px;&quot;&gt;&lt;span style=&quot;white-space: pre; font-size: 16px;&quot;&gt;&#x9;&lt;/span&gt;int count;&lt;br style=&quot;font-size: 16px;&quot;&gt;&lt;/div&gt;&lt;div style=&quot;font-size: 16px;&quot;&gt;} Queue;&lt;/div&gt;" style="rounded=1;whiteSpace=wrap;html=1;align=left;fillColor=#008a00;strokeColor=#005700;fontColor=#ffffff;spacingLeft=17;fontSize=16;spacingBottom=-27;movable=1;resizable=1;rotatable=1;deletable=1;editable=1;locked=0;connectable=1;" vertex="1" parent="1">
          <mxGeometry x="580" y="1020" width="223.5" height="180" as="geometry" />
        </mxCell>
        <mxCell id="7M1ooFL7KDycwPwj_hr8-71" value="队列结构定义" style="text;html=1;align=center;verticalAlign=middle;whiteSpace=wrap;rounded=0;fontColor=#FFFFFF;fontStyle=1;fontSize=15;" vertex="1" parent="1">
          <mxGeometry x="634.75" y="1040" width="114" height="30" as="geometry" />
        </mxCell>
        <mxCell id="7M1ooFL7KDycwPwj_hr8-72" style="edgeStyle=orthogonalEdgeStyle;rounded=0;orthogonalLoop=1;jettySize=auto;html=1;exitX=1;exitY=0.5;exitDx=0;exitDy=0;entryX=0;entryY=0.5;entryDx=0;entryDy=0;" edge="1" parent="1" source="7M1ooFL7KDycwPwj_hr8-73" target="7M1ooFL7KDycwPwj_hr8-70">
          <mxGeometry relative="1" as="geometry" />
        </mxCell>
        <mxCell id="7M1ooFL7KDycwPwj_hr8-73" value="typedef struct Linklist {&lt;div&gt;&lt;span style=&quot;white-space: pre;&quot;&gt;&#x9;&lt;/span&gt;Node head, *tail;&lt;br&gt;&lt;/div&gt;&lt;div&gt;} Linklist;&lt;/div&gt;" style="rounded=1;whiteSpace=wrap;html=1;align=left;fillColor=#008a00;strokeColor=#005700;fontColor=#ffffff;spacingLeft=17;fontSize=16;spacingBottom=-27;movable=1;resizable=1;rotatable=1;deletable=1;editable=1;locked=0;connectable=1;" vertex="1" parent="1">
          <mxGeometry x="289" y="1020" width="220" height="180" as="geometry" />
        </mxCell>
        <mxCell id="7M1ooFL7KDycwPwj_hr8-74" value="链表Linklist" style="text;html=1;align=center;verticalAlign=middle;whiteSpace=wrap;rounded=0;fontColor=#FFFFFF;fontStyle=1;fontSize=15;" vertex="1" parent="1">
          <mxGeometry x="342" y="1040" width="114" height="30" as="geometry" />
        </mxCell>
        <mxCell id="7M1ooFL7KDycwPwj_hr8-75" style="edgeStyle=orthogonalEdgeStyle;rounded=0;orthogonalLoop=1;jettySize=auto;html=1;exitX=1;exitY=0.5;exitDx=0;exitDy=0;entryX=0;entryY=0.5;entryDx=0;entryDy=0;" edge="1" parent="1" source="7M1ooFL7KDycwPwj_hr8-76" target="7M1ooFL7KDycwPwj_hr8-73">
          <mxGeometry relative="1" as="geometry" />
        </mxCell>
        <mxCell id="7M1ooFL7KDycwPwj_hr8-76" value="typedef struct Node{&lt;div&gt;&lt;span style=&quot;white-space: pre;&quot;&gt;&#x9;&lt;/span&gt;int data;&lt;br&gt;&lt;/div&gt;&lt;div&gt;&lt;span style=&quot;white-space: pre;&quot;&gt;&#x9;&lt;/span&gt;struct Node *next;&lt;br&gt;&lt;/div&gt;&lt;div&gt;} Node;&lt;/div&gt;" style="rounded=1;whiteSpace=wrap;html=1;align=left;fillColor=#008a00;strokeColor=#005700;fontColor=#ffffff;spacingLeft=17;fontSize=16;spacingBottom=-27;movable=1;resizable=1;rotatable=1;deletable=1;editable=1;locked=0;connectable=1;" vertex="1" parent="1">
          <mxGeometry x="13" y="1020" width="197" height="180" as="geometry" />
        </mxCell>
        <mxCell id="7M1ooFL7KDycwPwj_hr8-77" value="节点Node" style="text;html=1;align=center;verticalAlign=middle;whiteSpace=wrap;rounded=0;fontColor=#FFFFFF;fontStyle=1;fontSize=15;" vertex="1" parent="1">
          <mxGeometry x="51" y="1040" width="114" height="30" as="geometry" />
        </mxCell>
        <mxCell id="7M1ooFL7KDycwPwj_hr8-78" value="队列借助低一层的链表所提供的性质，实现自己的性质" style="rounded=1;whiteSpace=wrap;html=1;fillColor=#d80073;fontColor=#ffffff;strokeColor=#A50040;fontStyle=1" vertex="1" parent="1">
          <mxGeometry x="224.25" y="1240" width="401.5" height="30" as="geometry" />
        </mxCell>
        <mxCell id="7M1ooFL7KDycwPwj_hr8-87" style="edgeStyle=orthogonalEdgeStyle;rounded=0;orthogonalLoop=1;jettySize=auto;html=1;exitX=1;exitY=0.5;exitDx=0;exitDy=0;entryX=0;entryY=0.5;entryDx=0;entryDy=0;" edge="1" parent="1" source="7M1ooFL7KDycwPwj_hr8-80" target="7M1ooFL7KDycwPwj_hr8-82">
          <mxGeometry relative="1" as="geometry" />
        </mxCell>
        <mxCell id="7M1ooFL7KDycwPwj_hr8-80" value="&lt;font color=&quot;#ffff33&quot;&gt;Node *getNewNode(int val) {&lt;/font&gt;&lt;div&gt;&lt;font color=&quot;#ffff33&quot;&gt;&lt;span style=&quot;white-space: pre;&quot;&gt;&#x9;&lt;/span&gt;Node *p = (Node *)malloc(sizeof(Node));&lt;br&gt;&lt;/font&gt;&lt;/div&gt;&lt;div&gt;&lt;font color=&quot;#ffff33&quot;&gt;&lt;span style=&quot;white-space: pre;&quot;&gt;&#x9;&lt;/span&gt;p-&amp;gt;data = val;&lt;br&gt;&lt;/font&gt;&lt;/div&gt;&lt;div&gt;&lt;font color=&quot;#ffff33&quot;&gt;&lt;span style=&quot;white-space: pre;&quot;&gt;&#x9;&lt;/span&gt;p-&amp;gt;next = NULL;&lt;br&gt;&lt;/font&gt;&lt;/div&gt;&lt;div&gt;&lt;font color=&quot;#ffff33&quot;&gt;&lt;span style=&quot;white-space: pre;&quot;&gt;&#x9;&lt;/span&gt;return p;&lt;br&gt;&lt;/font&gt;&lt;/div&gt;&lt;div&gt;&lt;font color=&quot;#ffff33&quot;&gt;}&lt;/font&gt;&lt;/div&gt;" style="rounded=1;whiteSpace=wrap;html=1;align=left;fillColor=#0050ef;strokeColor=#001DBC;fontColor=#ffffff;spacingLeft=17;fontSize=16;spacingBottom=-41;container=0;" vertex="1" parent="1">
          <mxGeometry x="-216" y="1330" width="357" height="240" as="geometry" />
        </mxCell>
        <mxCell id="7M1ooFL7KDycwPwj_hr8-81" value="节点初始化" style="text;html=1;align=center;verticalAlign=middle;whiteSpace=wrap;rounded=0;fontColor=#FFFFFF;fontStyle=1;fontSize=15;container=0;" vertex="1" parent="1">
          <mxGeometry x="-141.5" y="1360" width="140" height="30" as="geometry" />
        </mxCell>
        <mxCell id="7M1ooFL7KDycwPwj_hr8-88" style="edgeStyle=orthogonalEdgeStyle;rounded=0;orthogonalLoop=1;jettySize=auto;html=1;exitX=1;exitY=0.5;exitDx=0;exitDy=0;entryX=0;entryY=0.5;entryDx=0;entryDy=0;" edge="1" parent="1" source="7M1ooFL7KDycwPwj_hr8-82" target="7M1ooFL7KDycwPwj_hr8-84">
          <mxGeometry relative="1" as="geometry" />
        </mxCell>
        <mxCell id="7M1ooFL7KDycwPwj_hr8-82" value="&lt;font color=&quot;#ffff33&quot;&gt;Linklist *initLinklist() {&lt;/font&gt;&lt;div&gt;&lt;font color=&quot;#ffff33&quot;&gt;&lt;span style=&quot;white-space: pre;&quot;&gt;&#x9;&lt;/span&gt;Linklist *l = (Linklist *)malloc(sizeof(Linklist));&lt;br&gt;&lt;/font&gt;&lt;/div&gt;&lt;div&gt;&lt;font color=&quot;#ffff33&quot;&gt;&lt;span style=&quot;white-space: pre;&quot;&gt;&#x9;&lt;/span&gt;l-&amp;gt;head.next = NULL;&lt;br&gt;&lt;/font&gt;&lt;/div&gt;&lt;div&gt;&lt;font color=&quot;#ffff33&quot;&gt;&lt;span style=&quot;white-space: pre;&quot;&gt;&#x9;&lt;/span&gt;l-&amp;gt;tail = &amp;amp;(l-&amp;gt;head);&lt;br&gt;&lt;/font&gt;&lt;/div&gt;&lt;div&gt;&lt;font color=&quot;#ffff33&quot;&gt;&lt;span style=&quot;white-space: pre;&quot;&gt;&#x9;&lt;/span&gt;return l;&amp;nbsp; &amp;nbsp; &amp;nbsp;&amp;nbsp;&lt;br&gt;&lt;/font&gt;&lt;/div&gt;&lt;div&gt;&lt;font color=&quot;#ffff33&quot;&gt;}&lt;/font&gt;&lt;/div&gt;" style="rounded=1;whiteSpace=wrap;html=1;align=left;fillColor=#0050ef;strokeColor=#001DBC;fontColor=#ffffff;spacingLeft=17;fontSize=16;spacingBottom=-41;container=0;" vertex="1" parent="1">
          <mxGeometry x="214" y="1330" width="391" height="240" as="geometry" />
        </mxCell>
        <mxCell id="7M1ooFL7KDycwPwj_hr8-83" value="链表初始化" style="text;html=1;align=center;verticalAlign=middle;whiteSpace=wrap;rounded=0;fontColor=#FFFFFF;fontStyle=1;fontSize=15;container=0;" vertex="1" parent="1">
          <mxGeometry x="305.5" y="1360" width="140" height="30" as="geometry" />
        </mxCell>
        <mxCell id="7M1ooFL7KDycwPwj_hr8-84" value="&lt;font color=&quot;#ffff33&quot;&gt;Queue *initQueue() {&lt;/font&gt;&lt;div&gt;&lt;font color=&quot;#ffff33&quot;&gt;&lt;span style=&quot;white-space: pre;&quot;&gt;&#x9;&lt;/span&gt;Queue *q = (Queue *)malloc(sizeof(Queue));&lt;br&gt;&lt;/font&gt;&lt;/div&gt;&lt;div&gt;&lt;font color=&quot;#ffff33&quot;&gt;&lt;span style=&quot;white-space: pre;&quot;&gt;&#x9;&lt;/span&gt;q-&amp;gt;l = initLinklist();&lt;br&gt;&lt;/font&gt;&lt;/div&gt;&lt;div&gt;&lt;font color=&quot;#ffff33&quot;&gt;&lt;span style=&quot;white-space: pre;&quot;&gt;&#x9;&lt;/span&gt;q-&amp;gt;count = 0;&lt;br&gt;&lt;/font&gt;&lt;/div&gt;&lt;div&gt;&lt;font color=&quot;#ffff33&quot;&gt;&lt;span style=&quot;white-space: pre;&quot;&gt;&#x9;&lt;/span&gt;return q;&lt;br&gt;&lt;/font&gt;&lt;/div&gt;&lt;div&gt;&lt;font color=&quot;#ffff33&quot;&gt;}&lt;/font&gt;&lt;/div&gt;" style="rounded=1;whiteSpace=wrap;html=1;align=left;fillColor=#0050ef;strokeColor=#001DBC;fontColor=#ffffff;spacingLeft=17;fontSize=16;spacingBottom=-41;container=0;" vertex="1" parent="1">
          <mxGeometry x="686" y="1330" width="398" height="240" as="geometry" />
        </mxCell>
        <mxCell id="7M1ooFL7KDycwPwj_hr8-85" value="队列初始化" style="text;html=1;align=center;verticalAlign=middle;whiteSpace=wrap;rounded=0;fontColor=#FFFFFF;fontStyle=1;fontSize=15;container=0;" vertex="1" parent="1">
          <mxGeometry x="760.5" y="1360" width="140" height="30" as="geometry" />
        </mxCell>
        <mxCell id="7M1ooFL7KDycwPwj_hr8-91" value="&lt;font color=&quot;#ffff33&quot;&gt;void clearLinklist(Linklist *l) {&lt;/font&gt;&lt;div&gt;&lt;font color=&quot;#ffff33&quot;&gt;&lt;span style=&quot;white-space: pre;&quot;&gt;&#x9;&lt;/span&gt;if (l-&amp;gt;head.next == NULL) return ;&lt;br&gt;&lt;/font&gt;&lt;/div&gt;&lt;div&gt;&lt;font color=&quot;#ffff33&quot;&gt;&lt;span style=&quot;white-space: pre;&quot;&gt;&#x9;&lt;/span&gt;Node *p = l-&amp;gt;head.next;&lt;br&gt;&lt;/font&gt;&lt;/div&gt;&lt;div&gt;&lt;font color=&quot;#ffff33&quot;&gt;&lt;span style=&quot;white-space: pre;&quot;&gt;&#x9;&lt;/span&gt;Node *q&lt;br&gt;&lt;/font&gt;&lt;/div&gt;&lt;div&gt;&lt;font color=&quot;#ffff33&quot;&gt;&lt;span style=&quot;white-space: pre;&quot;&gt;&#x9;&lt;/span&gt;while (p) {&lt;/font&gt;&lt;/div&gt;&lt;div&gt;&lt;font color=&quot;#ffff33&quot;&gt;&lt;span style=&quot;white-space: pre;&quot;&gt;&#x9;&lt;/span&gt;&lt;span style=&quot;white-space: pre;&quot;&gt;&#x9;&lt;/span&gt;q = p-&amp;gt;next;&lt;br&gt;&lt;/font&gt;&lt;/div&gt;&lt;div&gt;&lt;font color=&quot;#ffff33&quot;&gt;&lt;span style=&quot;white-space: pre;&quot;&gt;&#x9;&lt;/span&gt;&lt;span style=&quot;white-space: pre;&quot;&gt;&#x9;&lt;/span&gt;free(p);&lt;br&gt;&lt;/font&gt;&lt;/div&gt;&lt;div&gt;&lt;font color=&quot;#ffff33&quot;&gt;&lt;span style=&quot;white-space: pre;&quot;&gt;&#x9;&lt;/span&gt;&lt;span style=&quot;white-space: pre;&quot;&gt;&#x9;&lt;/span&gt;p = q;&lt;br&gt;&lt;/font&gt;&lt;/div&gt;&lt;div&gt;&lt;font color=&quot;#ffff33&quot;&gt;&lt;span style=&quot;white-space: pre;&quot;&gt;&#x9;&lt;/span&gt;}&lt;br&gt;&lt;/font&gt;&lt;/div&gt;&lt;div&gt;&lt;font color=&quot;#ffff33&quot;&gt;&lt;span style=&quot;white-space: pre;&quot;&gt;&#x9;&lt;/span&gt;free(l);&lt;br&gt;&lt;/font&gt;&lt;/div&gt;&lt;div&gt;&lt;font color=&quot;#ffff33&quot;&gt;&lt;span style=&quot;white-space: pre;&quot;&gt;&#x9;&lt;/span&gt;return ;&lt;br&gt;&lt;/font&gt;&lt;/div&gt;&lt;div&gt;&lt;/div&gt;&lt;div&gt;&lt;font color=&quot;#ffff33&quot;&gt;}&lt;/font&gt;&lt;/div&gt;" style="rounded=1;whiteSpace=wrap;html=1;align=left;fillColor=#0050ef;strokeColor=#001DBC;fontColor=#ffffff;spacingLeft=17;fontSize=16;spacingBottom=-41;container=0;" vertex="1" parent="1">
          <mxGeometry x="28.5" y="1660" width="310" height="340" as="geometry" />
        </mxCell>
        <mxCell id="7M1ooFL7KDycwPwj_hr8-92" value="链表销毁" style="text;html=1;align=center;verticalAlign=middle;whiteSpace=wrap;rounded=0;fontColor=#FFFFFF;fontStyle=1;fontSize=15;container=0;" vertex="1" parent="1">
          <mxGeometry x="113" y="1700" width="140" height="30" as="geometry" />
        </mxCell>
        <mxCell id="7M1ooFL7KDycwPwj_hr8-93" value="&lt;font color=&quot;#ffff33&quot;&gt;void clearQueue (Queue *q) {&lt;/font&gt;&lt;div&gt;&lt;font color=&quot;#ffff33&quot;&gt;&lt;span style=&quot;white-space: pre;&quot;&gt;&#x9;&lt;/span&gt;if (q == NULL) return ;&lt;br&gt;&lt;/font&gt;&lt;/div&gt;&lt;div&gt;&lt;font color=&quot;#ffff33&quot;&gt;&lt;span style=&quot;white-space: pre;&quot;&gt;&#x9;&lt;/span&gt;clearLinklist(q-&amp;gt;l);&lt;br&gt;&lt;/font&gt;&lt;/div&gt;&lt;div&gt;&lt;font color=&quot;#ffff33&quot;&gt;&lt;span style=&quot;white-space: pre;&quot;&gt;&#x9;&lt;/span&gt;free(q);&lt;br&gt;&lt;/font&gt;&lt;/div&gt;&lt;div&gt;&lt;font color=&quot;#ffff33&quot;&gt;&lt;span style=&quot;white-space: pre;&quot;&gt;&#x9;&lt;/span&gt;return ;&lt;br&gt;&lt;/font&gt;&lt;/div&gt;&lt;div&gt;&lt;font color=&quot;#ffff33&quot;&gt;}&lt;/font&gt;&lt;/div&gt;" style="rounded=1;whiteSpace=wrap;html=1;align=left;fillColor=#0050ef;strokeColor=#001DBC;fontColor=#ffffff;spacingLeft=17;fontSize=16;spacingBottom=-41;container=0;" vertex="1" parent="1">
          <mxGeometry x="540.5" y="1660" width="250" height="340" as="geometry" />
        </mxCell>
        <mxCell id="7M1ooFL7KDycwPwj_hr8-94" value="队列销毁" style="text;html=1;align=center;verticalAlign=middle;whiteSpace=wrap;rounded=0;fontColor=#FFFFFF;fontStyle=1;fontSize=15;container=0;" vertex="1" parent="1">
          <mxGeometry x="595" y="1700" width="140" height="30" as="geometry" />
        </mxCell>
        <mxCell id="7M1ooFL7KDycwPwj_hr8-97" value="&lt;font color=&quot;#ffff33&quot;&gt;int push(Queue *q, int val) {&lt;/font&gt;&lt;div&gt;&lt;font color=&quot;#ffff33&quot;&gt;&lt;span style=&quot;white-space: pre;&quot;&gt;&#x9;&lt;/span&gt;insertTail(q-&amp;gt;l, val);&lt;br&gt;&lt;/font&gt;&lt;/div&gt;&lt;div&gt;&lt;font color=&quot;#ffff33&quot;&gt;&lt;span style=&quot;white-space: pre;&quot;&gt;&#x9;&lt;/span&gt;q-&amp;gt;count += 1;&lt;br&gt;&lt;/font&gt;&lt;/div&gt;&lt;div&gt;&lt;font color=&quot;#ffff33&quot;&gt;&lt;span style=&quot;white-space: pre;&quot;&gt;&#x9;&lt;/span&gt;return 1;&lt;br&gt;&lt;/font&gt;&lt;/div&gt;&lt;div&gt;&lt;font color=&quot;#ffff33&quot;&gt;}&lt;/font&gt;&lt;/div&gt;" style="rounded=1;whiteSpace=wrap;html=1;align=left;fillColor=#0050ef;strokeColor=#001DBC;fontColor=#ffffff;spacingLeft=17;fontSize=16;spacingBottom=-41;container=0;" vertex="1" parent="1">
          <mxGeometry x="42.5" y="2080" width="310" height="200" as="geometry" />
        </mxCell>
        <mxCell id="7M1ooFL7KDycwPwj_hr8-98" value="队列FIFO特性操做&lt;div&gt;（push()）&lt;/div&gt;" style="text;html=1;align=center;verticalAlign=middle;whiteSpace=wrap;rounded=0;fontColor=#FFFFFF;fontStyle=1;fontSize=15;container=0;" vertex="1" parent="1">
          <mxGeometry x="127.5" y="2100" width="140" height="30" as="geometry" />
        </mxCell>
        <mxCell id="7M1ooFL7KDycwPwj_hr8-99" value="&lt;font color=&quot;#ffff33&quot;&gt;int pop(Queue *q) {&lt;/font&gt;&lt;div&gt;&lt;font color=&quot;#ffff33&quot;&gt;&lt;span style=&quot;white-space: pre;&quot;&gt;&#x9;&lt;/span&gt;if (emptyQueue(q)) return 0;&lt;br&gt;&lt;/font&gt;&lt;/div&gt;&lt;div&gt;&lt;font color=&quot;#ffff33&quot;&gt;&lt;span style=&quot;white-space: pre;&quot;&gt;&#x9;&lt;/span&gt;earseHead(q-&amp;gt;l);&lt;br&gt;&lt;/font&gt;&lt;/div&gt;&lt;div&gt;&lt;font color=&quot;#ffff33&quot;&gt;&lt;span style=&quot;white-space: pre;&quot;&gt;&#x9;&lt;/span&gt;q-&amp;gt;count -= 1;&lt;br&gt;&lt;/font&gt;&lt;/div&gt;&lt;div&gt;&lt;font color=&quot;#ffff33&quot;&gt;&lt;span style=&quot;white-space: pre;&quot;&gt;&#x9;&lt;/span&gt;return 1;&lt;br&gt;&lt;/font&gt;&lt;/div&gt;&lt;div&gt;&lt;font color=&quot;#ffff33&quot;&gt;}&lt;/font&gt;&lt;/div&gt;" style="rounded=1;whiteSpace=wrap;html=1;align=left;fillColor=#0050ef;strokeColor=#001DBC;fontColor=#ffffff;spacingLeft=17;fontSize=16;spacingBottom=-41;container=0;" vertex="1" parent="1">
          <mxGeometry x="477.5" y="2080" width="310" height="200" as="geometry" />
        </mxCell>
        <mxCell id="7M1ooFL7KDycwPwj_hr8-100" value="队列FIFO特性操做&lt;div&gt;（pop()）&lt;/div&gt;" style="text;html=1;align=center;verticalAlign=middle;whiteSpace=wrap;rounded=0;fontColor=#FFFFFF;fontStyle=1;fontSize=15;container=0;" vertex="1" parent="1">
          <mxGeometry x="562.5" y="2100" width="140" height="30" as="geometry" />
        </mxCell>
        <mxCell id="7M1ooFL7KDycwPwj_hr8-107" style="edgeStyle=orthogonalEdgeStyle;rounded=0;orthogonalLoop=1;jettySize=auto;html=1;exitX=0.5;exitY=0;exitDx=0;exitDy=0;entryX=0.5;entryY=1;entryDx=0;entryDy=0;" edge="1" parent="1" source="7M1ooFL7KDycwPwj_hr8-102" target="7M1ooFL7KDycwPwj_hr8-97">
          <mxGeometry relative="1" as="geometry" />
        </mxCell>
        <mxCell id="7M1ooFL7KDycwPwj_hr8-102" value="&lt;font color=&quot;#ffff33&quot;&gt;int insertTail(Linklist *l, int val) {&lt;/font&gt;&lt;div&gt;&lt;font color=&quot;#ffff33&quot;&gt;&lt;span style=&quot;white-space: pre;&quot;&gt;&#x9;&lt;/span&gt;Node *node = getNewNode(val);&lt;br&gt;&lt;/font&gt;&lt;/div&gt;&lt;div&gt;&lt;font color=&quot;#ffff33&quot;&gt;&lt;span style=&quot;white-space: pre;&quot;&gt;&#x9;&lt;/span&gt;l-&amp;gt;tail-&amp;gt;next = node;&lt;br&gt;&lt;/font&gt;&lt;/div&gt;&lt;div&gt;&lt;font color=&quot;#ffff33&quot;&gt;&lt;span style=&quot;white-space: pre;&quot;&gt;&#x9;&lt;/span&gt;l-&amp;gt;tail = node;&lt;br&gt;&lt;/font&gt;&lt;/div&gt;&lt;div&gt;&lt;font color=&quot;#ffff33&quot;&gt;&lt;span style=&quot;white-space: pre;&quot;&gt;&#x9;&lt;/span&gt;return 1;&lt;br&gt;&lt;/font&gt;&lt;/div&gt;&lt;div&gt;&lt;font color=&quot;#ffff33&quot;&gt;}&lt;/font&gt;&lt;/div&gt;" style="rounded=1;whiteSpace=wrap;html=1;align=left;fillColor=#0050ef;strokeColor=#001DBC;fontColor=#ffffff;spacingLeft=17;fontSize=16;spacingBottom=-41;container=0;" vertex="1" parent="1">
          <mxGeometry x="41.5" y="2370" width="310" height="220" as="geometry" />
        </mxCell>
        <mxCell id="7M1ooFL7KDycwPwj_hr8-103" value="链表操做" style="text;html=1;align=center;verticalAlign=middle;whiteSpace=wrap;rounded=0;fontColor=#FFFFFF;fontStyle=1;fontSize=15;container=0;" vertex="1" parent="1">
          <mxGeometry x="127.5" y="2390" width="140" height="30" as="geometry" />
        </mxCell>
        <mxCell id="7M1ooFL7KDycwPwj_hr8-108" style="edgeStyle=orthogonalEdgeStyle;rounded=0;orthogonalLoop=1;jettySize=auto;html=1;exitX=0.5;exitY=0;exitDx=0;exitDy=0;entryX=0.5;entryY=1;entryDx=0;entryDy=0;" edge="1" parent="1" source="7M1ooFL7KDycwPwj_hr8-104" target="7M1ooFL7KDycwPwj_hr8-99">
          <mxGeometry relative="1" as="geometry" />
        </mxCell>
        <mxCell id="7M1ooFL7KDycwPwj_hr8-104" value="&lt;font color=&quot;#ffff33&quot;&gt;int easerHead(Linklist *l) {&lt;/font&gt;&lt;div&gt;&lt;font color=&quot;#ffff33&quot;&gt;&lt;span style=&quot;white-space: pre;&quot;&gt;&#x9;&lt;/span&gt;if (emptylinklist(l)) return 0;&lt;br&gt;&lt;/font&gt;&lt;/div&gt;&lt;div&gt;&lt;font color=&quot;#ffff33&quot;&gt;&lt;span style=&quot;white-space: pre;&quot;&gt;&#x9;&lt;/span&gt;Node *p = l-&amp;gt;head.next;&lt;br&gt;&lt;/font&gt;&lt;/div&gt;&lt;div&gt;&lt;font color=&quot;#ffff33&quot;&gt;&lt;span style=&quot;white-space: pre;&quot;&gt;&#x9;&lt;/span&gt;l-&amp;gt;head.next = l-&amp;gt;head.next-&amp;gt;next;&lt;br&gt;&lt;/font&gt;&lt;/div&gt;&lt;div&gt;&lt;font color=&quot;#ffff33&quot;&gt;&lt;span style=&quot;white-space: pre;&quot;&gt;&#x9;&lt;/span&gt;if (p == l-&amp;gt;tail) l-&amp;gt;tail = &amp;amp;(l-&amp;gt;head);&lt;br&gt;&lt;/font&gt;&lt;/div&gt;&lt;div&gt;&lt;font color=&quot;#ffff33&quot;&gt;&lt;span style=&quot;white-space: pre;&quot;&gt;&#x9;&lt;/span&gt;free(p);&lt;br&gt;&lt;/font&gt;&lt;/div&gt;&lt;div&gt;&lt;font color=&quot;#ffff33&quot;&gt;&lt;span style=&quot;white-space: pre;&quot;&gt;&#x9;&lt;/span&gt;return 1;&lt;br&gt;&lt;/font&gt;&lt;/div&gt;&lt;div&gt;&lt;font color=&quot;#ffff33&quot;&gt;}&lt;/font&gt;&lt;/div&gt;" style="rounded=1;whiteSpace=wrap;html=1;align=left;fillColor=#0050ef;strokeColor=#001DBC;fontColor=#ffffff;spacingLeft=17;fontSize=16;spacingBottom=-41;container=0;" vertex="1" parent="1">
          <mxGeometry x="477.5" y="2370" width="310" height="220" as="geometry" />
        </mxCell>
        <mxCell id="7M1ooFL7KDycwPwj_hr8-105" value="链表操做2" style="text;html=1;align=center;verticalAlign=middle;whiteSpace=wrap;rounded=0;fontColor=#FFFFFF;fontStyle=1;fontSize=15;container=0;" vertex="1" parent="1">
          <mxGeometry x="576.5" y="2390" width="140" height="30" as="geometry" />
        </mxCell>
        <mxCell id="7M1ooFL7KDycwPwj_hr8-110" value="&lt;font color=&quot;#ffff33&quot;&gt;int emptyQueue(Queue *q) {&lt;/font&gt;&lt;div&gt;&lt;font color=&quot;#ffff33&quot;&gt;&lt;span style=&quot;white-space: pre;&quot;&gt;&#x9;&lt;/span&gt;return q-&amp;gt;count == 0;&lt;br&gt;&lt;/font&gt;&lt;/div&gt;&lt;div&gt;&lt;font color=&quot;#ffff33&quot;&gt;}&lt;/font&gt;&lt;/div&gt;" style="rounded=1;whiteSpace=wrap;html=1;align=left;fillColor=#0050ef;strokeColor=#001DBC;fontColor=#ffffff;spacingLeft=17;fontSize=16;spacingBottom=-41;container=0;" vertex="1" parent="1">
          <mxGeometry x="41.5" y="2660" width="310" height="170" as="geometry" />
        </mxCell>
        <mxCell id="7M1ooFL7KDycwPwj_hr8-111" value="链表判空&amp;nbsp;" style="text;html=1;align=center;verticalAlign=middle;whiteSpace=wrap;rounded=0;fontColor=#FFFFFF;fontStyle=1;fontSize=15;container=0;" vertex="1" parent="1">
          <mxGeometry x="127.5" y="2680" width="140" height="30" as="geometry" />
        </mxCell>
        <mxCell id="7M1ooFL7KDycwPwj_hr8-114" value="&lt;font color=&quot;#ffff33&quot;&gt;int emptylinklist(Linklist (*l) {&lt;/font&gt;&lt;div&gt;&lt;font color=&quot;#ffff33&quot;&gt;&lt;span style=&quot;white-space: pre;&quot;&gt;&#x9;&lt;/span&gt;return l-&amp;gt;head.next == NULL;&lt;br&gt;&lt;/font&gt;&lt;/div&gt;&lt;div&gt;&lt;font color=&quot;#ffff33&quot;&gt;}&lt;/font&gt;&lt;/div&gt;" style="rounded=1;whiteSpace=wrap;html=1;align=left;fillColor=#0050ef;strokeColor=#001DBC;fontColor=#ffffff;spacingLeft=17;fontSize=16;spacingBottom=-41;container=0;" vertex="1" parent="1">
          <mxGeometry x="470" y="2660" width="310" height="170" as="geometry" />
        </mxCell>
        <mxCell id="7M1ooFL7KDycwPwj_hr8-115" value="队列判空&amp;nbsp;" style="text;html=1;align=center;verticalAlign=middle;whiteSpace=wrap;rounded=0;fontColor=#FFFFFF;fontStyle=1;fontSize=15;container=0;" vertex="1" parent="1">
          <mxGeometry x="556" y="2680" width="140" height="30" as="geometry" />
        </mxCell>
      </root>
    </mxGraphModel>
  </diagram>
</mxfile>
